<svg xmlns="http://www.w3.org/2000/svg" width="45" height="36" viewBox="0 0 45 36">
  <path id="Icon_awesome-door-open" data-name="Icon awesome-door-open" d="M43.875,31.5H38.25V7.977A3.431,3.431,0,0,0,34.875,4.5H27V9h6.75V36H43.875A1.125,1.125,0,0,0,45,34.875v-2.25A1.125,1.125,0,0,0,43.875,31.5ZM21.954.071l-13.5,3.5A2.317,2.317,0,0,0,6.75,5.83V31.5H1.125A1.125,1.125,0,0,0,0,32.625v2.25A1.125,1.125,0,0,0,1.125,36H24.75V2.333a2.269,2.269,0,0,0-2.8-2.262ZM18.563,20.25c-.932,0-1.687-1.008-1.687-2.25s.756-2.25,1.688-2.25S20.25,16.758,20.25,18,19.494,20.25,18.563,20.25Z" transform="translate(0 0)"/>
</svg>
